<svg width="28" height="31" viewBox="0 0 28 31" fill="none" xmlns="http://www.w3.org/2000/svg">
<path d="M27.6057 10.1317C25.9493 3.14537 19.5921 0 14.0079 0C14.0079 0 14.0079 0 13.9921 0C8.42363 0 2.05067 3.13024 0.394332 10.1166C-1.4513 17.9195 3.53349 24.5278 8.04504 28.6863C9.71716 30.2288 11.8626 31 14.0079 31C16.1533 31 18.2986 30.2288 19.955 28.6863C24.4665 24.5278 29.4513 17.9346 27.6057 10.1317ZM14.0079 17.7078C11.2631 17.7078 9.03885 15.5756 9.03885 12.9444C9.03885 10.3132 11.2631 8.18098 14.0079 8.18098C16.7527 8.18098 18.9769 10.3132 18.9769 12.9444C18.9769 15.5756 16.7527 17.7078 14.0079 17.7078Z" fill="#292D32" fill-opacity="0.7"/>
</svg>
