<svg width="32" height="35" viewBox="0 0 32 35" fill="none" xmlns="http://www.w3.org/2000/svg">
<path d="M23.626 12.0185C22.9396 12.0185 22.3704 11.4651 22.3704 10.7978V8.55171C22.3704 6.84275 21.6171 5.18259 20.3113 4.027C18.9887 2.85513 17.2811 2.31803 15.4731 2.48079C12.4596 2.75748 9.81453 5.75225 9.81453 8.87722V10.456C9.81453 11.1233 9.24533 11.6767 8.55894 11.6767C7.87255 11.6767 7.30334 11.1233 7.30334 10.456V8.86095C7.30334 4.48272 10.9362 0.446294 15.2387 0.0393962C17.7499 -0.188467 20.1606 0.576502 22.0021 2.22037C23.8269 3.83169 24.8816 6.14287 24.8816 8.55171V10.7978C24.8816 11.4651 24.3124 12.0185 23.626 12.0185Z" fill="#292D32" fill-opacity="0.8"/>
<path d="M21.1145 35H11.0698C3.33535 35 1.8956 31.5007 1.5273 28.099L0.271704 18.3498C0.0875505 16.592 0.0205859 14.0692 1.77841 12.1812C3.28512 10.5536 5.77957 9.77234 9.39567 9.77234H22.7886C26.4215 9.77234 28.9159 10.5699 30.4059 12.1812C32.147 14.0692 32.0967 16.592 31.9126 18.3172L30.657 28.099C30.2887 31.5007 28.8489 35 21.1145 35ZM9.39567 12.2137C6.5664 12.2137 4.62442 12.7508 3.63669 13.825C2.81637 14.7039 2.54851 16.0548 2.76615 18.0731L4.02174 27.8223C4.30634 30.4265 5.04295 32.5749 11.0698 32.5749H21.1145C27.1413 32.5749 27.878 30.4428 28.1626 27.8549L29.4181 18.0731C29.6358 16.0874 29.3679 14.7365 28.5476 13.8413C27.5599 12.7508 25.6179 12.2137 22.7886 12.2137H9.39567Z" fill="#292D32" fill-opacity="0.8"/>
<path d="M21.8183 19.3749C20.8808 19.3749 20.1274 18.6425 20.1274 17.7473C20.1274 16.8522 20.8808 16.1198 21.8016 16.1198C22.7223 16.1198 23.4757 16.8522 23.4757 17.7473C23.4757 18.6425 22.7391 19.3749 21.8183 19.3749Z" fill="#292D32" fill-opacity="0.8"/>
<path d="M10.0993 19.3749C9.1618 19.3749 8.40845 18.6425 8.40845 17.7473C8.40845 16.8522 9.1618 16.1198 10.0826 16.1198C11.0033 16.1198 11.7567 16.8522 11.7567 17.7473C11.7567 18.6425 11.0201 19.3749 10.0993 19.3749Z" fill="#292D32" fill-opacity="0.8"/>
</svg>
