<svg width="29" height="26" viewBox="0 0 29 26" fill="none" xmlns="http://www.w3.org/2000/svg">
<path fill-rule="evenodd" clip-rule="evenodd" d="M3.41731 0.829065C3.73444 0.545146 4.11525 0.324899 4.53449 0.182919C4.95374 0.0409389 5.40185 -0.0195318 5.84913 0.00551423C6.29642 0.0305602 6.73266 0.140551 7.12894 0.328197C7.52523 0.515844 7.87252 0.776861 8.14779 1.09395L11.4011 4.84137C11.9974 5.52878 12.2077 6.4242 11.972 7.26924L10.9806 10.8281C10.9294 11.0125 10.9321 11.2056 10.9887 11.3887C11.0452 11.5717 11.1536 11.7386 11.3032 11.8731L15.7564 15.8659C15.9066 16.0004 16.093 16.0977 16.2975 16.1484C16.5021 16.1991 16.7178 16.2014 16.9236 16.1551L20.8911 15.2662C21.3562 15.162 21.8416 15.1539 22.3107 15.2425C22.7798 15.3312 23.2203 15.5144 23.5989 15.7781L27.7784 18.6935C29.2809 19.7417 29.4186 21.7324 28.0738 22.9366L26.1997 24.6169C24.8585 25.8195 22.8539 26.3476 20.9853 25.7577C16.2026 24.2489 11.8602 21.7939 8.28009 18.5749C4.69017 15.3654 1.95214 11.4724 0.269095 7.18473C-0.387009 5.5109 0.202035 3.71195 1.54324 2.50939L3.41731 0.829065Z" fill="#111111" fill-opacity="0.7"/>
</svg>
