<svg width="35" height="35" viewBox="0 0 35 35" fill="none" xmlns="http://www.w3.org/2000/svg">
<path d="M34.9999 17.5C34.9999 7.8575 27.1424 0 17.4999 0C7.85744 0 -6.10352e-05 7.8575 -6.10352e-05 17.5C-6.10352e-05 22.575 2.18744 27.1425 5.65244 30.345C5.65244 30.3625 5.65244 30.3625 5.63494 30.38C5.80994 30.555 6.01994 30.695 6.19494 30.8525C6.29994 30.94 6.38744 31.0275 6.49244 31.0975C6.80744 31.36 7.15744 31.605 7.48994 31.85C7.61244 31.9375 7.71744 32.0075 7.83994 32.095C8.17244 32.3225 8.52244 32.5325 8.88994 32.725C9.01244 32.795 9.15244 32.8825 9.27494 32.9525C9.62494 33.145 9.99244 33.32 10.3774 33.4775C10.5174 33.5475 10.6574 33.6175 10.7974 33.67C11.1824 33.8275 11.5674 33.9675 11.9524 34.09C12.0924 34.1425 12.2324 34.195 12.3724 34.23C12.7924 34.3525 13.2124 34.4575 13.6324 34.5625C13.7549 34.5975 13.8774 34.6325 14.0174 34.65C14.5074 34.755 14.9974 34.825 15.5049 34.8775C15.5749 34.8775 15.6449 34.895 15.7149 34.9125C16.3099 34.965 16.9049 35 17.4999 35C18.0949 35 18.6899 34.965 19.2674 34.9125C19.3374 34.9125 19.4074 34.895 19.4774 34.8775C19.9849 34.825 20.4749 34.755 20.9649 34.65C21.0874 34.6325 21.2099 34.58 21.3499 34.5625C21.7699 34.4575 22.2074 34.37 22.6099 34.23C22.7499 34.1775 22.8899 34.125 23.0299 34.09C23.4149 33.95 23.8174 33.8275 24.1849 33.67C24.3249 33.6175 24.4649 33.5475 24.6049 33.4775C24.9724 33.32 25.3399 33.145 25.7074 32.9525C25.8474 32.8825 25.9699 32.795 26.0924 32.725C26.4424 32.515 26.7924 32.3225 27.1424 32.095C27.2649 32.025 27.3699 31.9375 27.4924 31.85C27.8424 31.605 28.1749 31.36 28.4899 31.0975C28.5949 31.01 28.6824 30.9225 28.7874 30.8525C28.9799 30.695 29.1724 30.5375 29.3474 30.38C29.3474 30.3625 29.3474 30.3625 29.3299 30.345C32.8124 27.1425 34.9999 22.575 34.9999 17.5ZM26.1449 26.1975C21.4024 23.0125 13.6324 23.0125 8.85494 26.1975C8.08494 26.705 7.45494 27.3 6.92994 27.9475C4.26994 25.2525 2.62494 21.56 2.62494 17.5C2.62494 9.2925 9.29244 2.625 17.4999 2.625C25.7074 2.625 32.3749 9.2925 32.3749 17.5C32.3749 21.56 30.7299 25.2525 28.0699 27.9475C27.5624 27.3 26.9149 26.705 26.1449 26.1975Z" fill="#292D32" fill-opacity="0.8"/>
<path d="M17.4999 8.62695C13.8774 8.62695 10.9374 11.567 10.9374 15.1895C10.9374 18.742 13.7199 21.6295 17.4124 21.7345H17.5699H17.6924H17.7274C21.2624 21.612 24.0449 18.742 24.0624 15.1895C24.0624 11.567 21.1224 8.62695 17.4999 8.62695Z" fill="#292D32" fill-opacity="0.8"/>
</svg>
