<svg width="29" height="25" viewBox="0 0 29 25" fill="none" xmlns="http://www.w3.org/2000/svg">
<path d="M24.65 0H4.35C3.19631 0 2.08987 0.49386 1.27409 1.37294C0.458302 2.25201 0 3.4443 0 4.6875V20.3125C0 21.5557 0.458302 22.748 1.27409 23.6271C2.08987 24.5061 3.19631 25 4.35 25H24.65C25.8037 25 26.9101 24.5061 27.7259 23.6271C28.5417 22.748 29 21.5557 29 20.3125V4.6875C29 3.4443 28.5417 2.25201 27.7259 1.37294C26.9101 0.49386 25.8037 0 24.65 0ZM23.6785 3.125L14.5 10.5469L5.3215 3.125H23.6785ZM24.65 21.875H4.35C3.96544 21.875 3.59662 21.7104 3.3247 21.4174C3.05277 21.1243 2.9 20.7269 2.9 20.3125V5.07812L13.63 13.75C13.881 13.9528 14.1863 14.0625 14.5 14.0625C14.8137 14.0625 15.119 13.9528 15.37 13.75L26.1 5.07812V20.3125C26.1 20.7269 25.9472 21.1243 25.6753 21.4174C25.4034 21.7104 25.0346 21.875 24.65 21.875Z" fill="#111111" fill-opacity="0.7"/>
</svg>
